<svg xmlns="http://www.w3.org/2000/svg" xmlns:xlink="http://www.w3.org/1999/xlink" viewBox="0 0 280 250" preserveAspectRatio="xMidYMid" style="display: block; shape-rendering: auto; background: transparent;" width="280" height="250"><style type="text/css">
  .ld-text text {
    text-anchor: middle;
    dominant-baseline: middle;
    font-size: 80px;
    opacity: 0;
    user-select: none;
    pointer-events: none;
  }
</style>
<g style="transform-origin:140px 125px;transform:scale(1)" class="ld-text">
<g transform="translate(140,125)">
  <g transform="scale(1.0000) translate(0,0)"><g class="path" style="opacity: 1; animation: 1s linear -0.565714s infinite normal forwards running animate-hx9m39h8seu; transform-box: view-box; transform-origin: -120.92px -2.28px;"><path d="M17.60 38.01L17.60 38.01Q12.88 38.01 9.08 36.81Q5.28 35.61 2.80 33.69L2.80 33.69L5.84 27.69Q7.92 29.45 11.08 30.61Q14.24 31.77 17.84 31.77L17.84 31.77Q22.32 31.77 24.60 30.29Q26.88 28.81 26.88 26.49L26.88 26.49Q26.88 24.81 26.04 23.53Q25.20 22.25 22.96 21.01Q20.72 19.77 16.48 18.33L16.48 18.33Q10.64 16.33 7.72 13.57Q4.80 10.81 4.80 5.93L4.80 5.93Q4.80 1.13 9-2.19Q13.20-5.51 20.64-5.51L20.64-5.51Q24.64-5.51 27.76-4.67Q30.88-3.83 33.36-2.55L33.36-2.55L31.36 3.37Q29.20 2.09 26.44 1.29Q23.68 0.49 20.32 0.49L20.32 0.49Q16.16 0.49 14 2.17Q11.84 3.85 11.84 5.85L11.84 5.85Q11.84 7.77 13.52 9.13Q15.20 10.49 20.08 12.09L20.08 12.09Q28 14.73 31.12 17.93Q34.24 21.13 34.24 25.93L34.24 25.93Q34.24 31.53 29.72 34.77Q25.20 38.01 17.60 38.01" style="fill: rgb(81, 79, 79);" transform="translate(-139.440,-18.526)"></path></g><g class="path" style="opacity: 1; animation: 1s linear -0.471429s infinite normal forwards running animate-hx9m39h8seu; transform-box: view-box; transform-origin: -78.12px -11.08px;"><path d="M51.04 37.05L43.84 37.05L43.84-22.15L51.04-22.15L51.04 2.09Q53.28-1.19 56.72-3.35Q60.16-5.51 64.80-5.51L64.80-5.51Q71.84-5.51 75.32-1.27Q78.80 2.97 78.80 9.93L78.80 9.93L78.80 37.05L71.60 37.05L71.60 10.73Q71.60 6.25 69.52 3.53Q67.44 0.81 63.68 0.81L63.68 0.81Q60 0.81 56.68 3.41Q53.36 6.01 51.04 9.53L51.04 9.53L51.04 37.05" style="fill: rgb(0, 0, 0);" transform="translate(-139.440,-18.526)"></path></g><g class="path" style="opacity: 1; animation: 1s linear -0.377143s infinite normal forwards running animate-hx9m39h8seu; transform-box: view-box; transform-origin: -30.72px -2.28px;"><path d="M108.72 38.01L108.72 38.01Q102.80 38.01 98.08 35.25Q93.36 32.49 90.68 27.57Q88 22.65 88 16.25L88 16.25Q88 9.53 90.72 4.65Q93.44-0.23 98.16-2.87Q102.88-5.51 108.72-5.51L108.72-5.51Q114.56-5.51 119.24-2.87Q123.92-0.23 126.68 4.61Q129.44 9.45 129.44 16.09L129.44 16.09Q129.44 22.73 126.72 27.65Q124 32.57 119.32 35.29Q114.64 38.01 108.72 38.01 zM108.72 31.61L108.72 31.61Q115.04 31.61 118.56 27.33Q122.08 23.05 122.08 16.25L122.08 16.25Q122.08 12.09 120.32 8.61Q118.56 5.13 115.56 3.01Q112.56 0.89 108.72 0.89L108.72 0.89Q102.40 0.89 98.88 5.05Q95.36 9.21 95.36 16.09L95.36 16.09Q95.36 20.25 97.12 23.81Q98.88 27.37 101.88 29.49Q104.88 31.61 108.72 31.61" style="fill: rgb(81, 79, 79);" transform="translate(-139.440,-18.526)"></path></g><g class="path" style="opacity: 1; animation: 1s linear -0.282857s infinite normal forwards running animate-hx9m39h8seu; transform-box: view-box; transform-origin: 15.92px 6.04px;"><path d="M146.16 54.65L138.96 54.65L138.96 6.09Q138.96 3.37 137.64 2.21Q136.32 1.05 134.24 1.05L134.24 1.05L135.76-4.55Q143.12-4.55 144.96 1.29L144.96 1.29Q145.76 0.09 147.56-1.51Q149.36-3.11 152.04-4.31Q154.72-5.51 158.16-5.51L158.16-5.51Q162.96-5.51 167.16-2.99Q171.36-0.47 173.92 4.29Q176.48 9.05 176.48 15.85L176.48 15.85Q176.48 22.49 173.92 27.49Q171.36 32.49 167.24 35.25Q163.12 38.01 158.32 38.01L158.32 38.01Q154.64 38.01 151.44 36.53Q148.24 35.05 146.16 33.13L146.16 33.13L146.16 54.65 zM156.88 31.61L156.88 31.61Q162.32 31.61 165.72 27.33Q169.12 23.05 169.12 16.09L169.12 16.09Q169.12 11.29 167.40 7.85Q165.68 4.41 162.84 2.57Q160 0.73 156.56 0.73L156.56 0.73Q153.12 0.73 150.36 2.45Q147.60 4.17 146.16 6.17L146.16 6.17L146.16 26.65Q148.24 28.81 150.96 30.21Q153.68 31.61 156.88 31.61" style="fill: rgb(0, 0, 0);" transform="translate(-139.440,-18.526)"></path></g><g class="path" style="opacity: 1; animation: 1s linear -0.188571s infinite normal forwards running animate-hx9m39h8seu; transform-box: view-box; transform-origin: 50.64px 14.12px;"><path d="M190.08 38.01L190.08 38.01Q187.92 38.01 186.32 36.41Q184.72 34.81 184.72 32.65L184.72 32.65Q184.72 30.17 186.16 28.73Q187.60 27.29 190.08 27.29L190.08 27.29Q192.16 27.29 193.80 28.89Q195.44 30.49 195.44 32.65L195.44 32.65Q195.44 35.05 193.92 36.53Q192.40 38.01 190.08 38.01" style="fill: rgb(81, 79, 79);" transform="translate(-139.440,-18.526)"></path></g><g class="path" style="opacity: 1; animation: 1s linear -0.0942857s infinite normal forwards running animate-hx9m39h8seu; transform-box: view-box; transform-origin: 80.32px -2.28px;"><path d="M223.28 38.01L223.28 38.01Q217.36 38.01 212.92 35.25Q208.48 32.49 206.08 27.57Q203.68 22.65 203.68 16.25L203.68 16.25Q203.68 10.25 206.12 5.29Q208.56 0.33 213.12-2.59Q217.68-5.51 223.84-5.51L223.84-5.51Q227.36-5.51 230.04-4.87Q232.72-4.23 235.20-3.03L235.20-3.03L233.04 3.05Q230.80 1.93 228.76 1.41Q226.72 0.89 224.24 0.89L224.24 0.89Q218.64 0.89 214.84 4.93Q211.04 8.97 211.04 16.09L211.04 16.09Q211.04 20.41 212.64 23.93Q214.24 27.45 217.08 29.53Q219.92 31.61 223.76 31.61L223.76 31.61Q226.80 31.61 228.96 30.93Q231.12 30.25 233.60 28.97L233.60 28.97L235.84 35.05Q233.36 36.41 230.28 37.21Q227.20 38.01 223.28 38.01" style="fill: rgb(0, 0, 0);" transform="translate(-139.440,-18.526)"></path></g><g class="path" style="opacity: 1; animation: 1s linear 0s infinite normal forwards running animate-hx9m39h8seu; transform-box: view-box; transform-origin: 121.52px -2.28px;"><path d="M260.96 38.01L260.96 38.01Q255.04 38.01 250.32 35.25Q245.60 32.49 242.92 27.57Q240.24 22.65 240.24 16.25L240.24 16.25Q240.24 9.53 242.96 4.65Q245.68-0.23 250.40-2.87Q255.12-5.51 260.96-5.51L260.96-5.51Q266.80-5.51 271.48-2.87Q276.16-0.23 278.92 4.61Q281.68 9.45 281.68 16.09L281.68 16.09Q281.68 22.73 278.96 27.65Q276.24 32.57 271.56 35.29Q266.88 38.01 260.96 38.01 zM260.96 31.61L260.96 31.61Q267.28 31.61 270.80 27.33Q274.32 23.05 274.32 16.25L274.32 16.25Q274.32 12.09 272.56 8.61Q270.80 5.13 267.80 3.01Q264.80 0.89 260.96 0.89L260.96 0.89Q254.64 0.89 251.12 5.05Q247.60 9.21 247.60 16.09L247.60 16.09Q247.60 20.25 249.36 23.81Q251.12 27.37 254.12 29.49Q257.12 31.61 260.96 31.61" style="fill: rgb(81, 79, 79);" transform="translate(-139.440,-18.526)"></path></g></g><text dy="0.35em" fill="#514f4f" font-family="ABeeZee" font-size="80">shop.co</text>
</g>
</g><style type="text/css">@keyframes animate-hx9m39h8seu { 0.00% {animation-timing-function: cubic-bezier(0.33,0.00,0.67,0.00);transform: translate(0.00px,0.00px) rotate(0.00deg) scale(1.00, 1.00) skew(0deg, 0.00deg) ;opacity: 1.00;}48.00% {transform: translate(0.00px,0.00px) rotate(0.00deg) ;opacity: 1.00;}50.00% {animation-timing-function: cubic-bezier(0.33,0.00,0.67,0.00);transform: translate(0.00px,0.00px) rotate(0.00deg) ;opacity: 0.00;}100.00% {animation-timing-function: cubic-bezier(0.33,0.00,0.67,0.00);transform: translate(0.00px,0.00px) rotate(0.00deg) ;opacity: 0.00;} }</style><!-- [ldio] generated by https://loading.io --></svg>